
        <svg xmlns="http://www.w3.org/2000/svg" xmlns:xlink="http://www.w3.org/1999/xlink" version="1.1" width="2871.6643868249603" 
        height="3225.781966531692" viewBox="0 0 2871.6643868249603 3225.781966531692">
			
			<g transform="scale(11.289098326584611) translate(10, 10)">
				<defs id="SvgjsDefs1588"></defs><g id="SvgjsG1589" featureKey="rootContainer" transform="matrix(4.725301111045653,0,0,4.725301111045653,0.0000347689931040783,0.019721259814305742)" fill="#f73859"><path xmlns="http://www.w3.org/2000/svg" d="M23.11 55.78L1.69 43.41A3.39 3.39 0 0 1 0 40.48V15.75a3.39 3.39 0 0 1 1.69-2.94L23.11.45a3.39 3.39 0 0 1 3.39 0l21.41 12.37a3.39 3.39 0 0 1 1.69 2.94v24.72a3.39 3.39 0 0 1-1.69 2.94L26.5 55.78a3.39 3.39 0 0 1-3.39 0z"></path></g><g id="SvgjsG1590" featureKey="symbolFeature-0" transform="matrix(0.72,0,0,0.72,81.38712020874024,79)" fill="#ffffff"><path xmlns="http://www.w3.org/2000/svg" d="M50,0C31.294,0,16.129,15.165,16.129,33.87c0,0.401,0.012,0.809,0.03,1.221c0.127,3.558,0.798,6.975,1.939,10.172  C25.324,69.015,50,100,50,100s24.673-30.982,31.9-54.734c1.143-3.197,1.813-6.617,1.939-10.175c0.02-0.412,0.031-0.819,0.031-1.221  C83.871,15.165,68.706,0,50,0z M50,50.459c-9.161,0-16.589-7.428-16.589-16.589c0-9.16,7.428-16.588,16.589-16.588  c9.162,0,16.589,7.428,16.589,16.588C66.589,43.031,59.162,50.459,50,50.459z"></path></g><g id="SvgjsG1591" featureKey="nameFeature-0" transform="matrix(0.554967114878938,0,0,0.554967114878938,40.414736353784086,164.65788795788427)" fill="#ffffff"><path d="M2.8571 40 l0 -28.571 l20.857 0 l4.2857 4.2857 l0 12 l-4.2857 4.2857 l-13.429 0 l0 8 l-7.4286 0 z M10.286 25.714 l10.286 0 l0 -8 l-10.286 0 l0 8 z M60.28528571428572 15.713999999999999 l0 10 l-4.2857 4.2857 l4.2857 6.5714 l0 3.4286 l-6.8571 0 l-5.9429 -9.7143 l-5.4857 0 l0 9.7143 l-7.4286 0 l0 -28.571 l21.429 0 z M52.857285714285716 24 l0 -6.2857 l-10.857 0 l0 6.2857 l10.857 0 z M87.714 11.428999999999998 l4.2857 4.2857 l0 20 l-4.2857 4.2857 l-16.571 0 l-4.2857 -4.2857 l0 -20 l4.2857 -4.2857 l16.571 0 z M84.571 33.7143 l0 -16 l-10.286 0 l0 16 l10.286 0 z M122.85728571428572 17.714 l-16.857 0 l0 4.8571 l14.571 0 l0 6.2857 l-14.571 0 l0 11.143 l-7.4286 0 l0 -24.286 l4.2857 -4.2857 l20 0 l0 6.2857 z M152.28585714285714 17.714 l-16.857 0 l0 4.8571 l14.571 0 l0 6.2857 l-14.571 0 l0 4.8571 l16.857 0 l0 6.2857 l-20 0 l-4.2857 -4.2857 l0 -24.286 l24.286 0 l0 6.2857 z M198.28585714285714 17.714 l-16.857 0 l0 4.8571 l14.571 0 l0 6.2857 l-14.571 0 l0 11.143 l-7.4286 0 l0 -24.286 l4.2857 -4.2857 l20 0 l0 6.2857 z M203.42852857142856 35.7143 l0 -24.286 l7.4286 0 l0 22.286 l15.429 0 l0 6.2857 l-18.571 0 z M230.57142857142856 40 l0 -5.7143 l2.2857 0 l0 -17.143 l-2.2857 0 l0 -5.7143 l12 0 l0 5.7143 l-2.2857 0 l0 17.143 l2.2857 0 l0 5.7143 l-12 0 z M247.42857142857142 40 l0 -3.4286 l7.8857 -10.857 l-7.8857 -10.857 l0 -3.4286 l6.5714 0 l6.2857 9.1429 l6.2857 -9.1429 l6.5714 0 l0 3.4286 l-7.8857 10.857 l7.8857 10.857 l0 3.4286 l-6.5714 0 l-6.2857 -9.1429 l-6.2857 9.1429 l-6.5714 0 z"></path></g>
			</g>
		</svg>
	